<svg xmlns="http://www.w3.org/2000/svg" viewBox="0 0 128 128">
  <path fill="#F7A80D" d="M38.089 77.466l-11.4 4.896 10.559 4.514 12.241-4.514-11.4-4.896zm-17.138 6.12l-.382 22.034 16.679 7.345V90.089l-16.297-6.503zm34.276 0l-15.48 5.85v22.608l15.48-7.726V83.586zm-15.48-70.143l-11.04 4.133 10.95 4.292 11.4-4.292-11.31-4.133zm-16.137 5.927l-.382 21.142 15.342 6.218V24.896L23.61 19.37zm31.732 0l-14.256 5.341v21.712l14.256-5.722V19.37z"/>
  <path fill="#F7A80D" d="M73.82 77.466l-11.4 4.896 10.558 4.514 12.241-4.514-11.399-4.896zm-17.139 6.12l-.382 22.034 16.679 7.345V90.089l-16.297-6.503zm34.276 0l-15.48 5.85v22.608l15.48-7.726V83.586zm-15.48-70.143l-11.04 4.133 10.95 4.292 11.4-4.292-11.31-4.133zm-16.137 5.927l-.382 21.142 15.342 6.218V24.896l-14.96-5.526zm31.731 0l-14.256 5.341v21.712l14.256-5.722V19.37z"/>
  <path fill="#F7A80D" d="M109.552 77.466l-11.4 4.896 10.559 4.514 12.241-4.514-11.4-4.896zm-17.139 6.12l-.382 22.034 16.679 7.345V90.089l-16.297-6.503zm34.276 0l-15.48 5.85v22.608l15.48-7.726V83.586zm-15.48-70.143l-11.04 4.133 10.95 4.292 11.4-4.292-11.31-4.133zm-16.137 5.927l-.382 21.142 15.342 6.218V24.896L95.072 19.37zm31.732 0l-14.256 5.341v21.712l14.256-5.722V19.37z"/>
  <path fill="#F7A80D" d="M38.089 44.672l-11.4 4.896 10.559 4.513 12.241-4.513-11.4-4.896zm-17.138 6.12l-.382 22.034 16.679 7.345V57.296L20.951 50.792zm34.276 0l-15.48 5.85V78.25l15.48-7.726V50.792z"/>
  <path fill="#F7A80D" d="M73.82 44.672l-11.4 4.896 10.558 4.513 12.241-4.513-11.399-4.896zm-17.139 6.12l-.382 22.034 16.679 7.345V57.296l-16.297-6.504zm34.276 0l-15.48 5.85V78.25l15.48-7.726V50.792z"/>
  <path fill="#F7A80D" d="M109.552 44.672l-11.4 4.896 10.559 4.513 12.241-4.513-11.4-4.896zm-17.139 6.12l-.382 22.034 16.679 7.345V57.296l-16.297-6.504zm34.276 0l-15.48 5.85V78.25l15.48-7.726V50.792z"/>
</svg>