<svg xmlns="http://www.w3.org/2000/svg" viewBox="0 0 264.583 255.324">
  <path fill="#e0234e" d="M153.32 0c-1.598 0-3.123.392-4.5.98a6.628 6.628 0 0 0-3.003 2.763c-.588 1.102-.907 2.352-.907 3.617a6.97 6.97 0 0 0 .465 2.543c-.847-.196-1.713-.29-2.584-.28a9.47 9.47 0 0 0-7.178 3.227 9.472 9.472 0 0 0-2.385 6.92 9.13 9.13 0 0 0 .57 2.828c-1.188-.35-2.42-.512-3.655-.476a10.553 10.553 0 0 0-7.553 3.466 10.564 10.564 0 0 0-2.686 7.489c.05 1.108.25 2.206.595 3.262a17.634 17.634 0 0 0-8.727 5.238c-.66-.168-1.338-.252-2.019-.25-2.084-.018-4.114.65-5.768 1.898a9.313 9.313 0 0 0-3.354 4.86c-.466 1.89-.31 3.884.446 5.676l.092.203a17.627 17.627 0 0 0-5.64 7.842l-.22.029c-2.08.18-4.054.97-5.655 2.26a9.334 9.334 0 0 0-3.072 5.03c-.416 1.918-.2 3.92.618 5.72.278.575.617 1.119 1.01 1.62a17.618 17.618 0 0 0-1.755 9.9l-.11.14c-2.925 3.47-3.88 8.142-2.494 12.446a17.46 17.46 0 0 0-.91 8.655c.604 3.99 2.606 7.616 5.619 10.17a17.44 17.44 0 0 0 1.556 9.85 17.497 17.497 0 0 0 7.072 7.363 17.585 17.585 0 0 0 9.978 2.346c1.103-.043 2.201-.18 3.282-.41.035.094.063.19.1.283a17.62 17.62 0 0 0 8.104 9.203 17.69 17.69 0 0 0 12.123 1.96c.953-.18 1.888-.436 2.795-.766a17.622 17.622 0 0 0 12.13 12.016 17.688 17.688 0 0 0 16.886-4.232c.585-.567 1.13-1.173 1.633-1.813a17.684 17.684 0 0 0 10.796 1.984 17.641 17.641 0 0 0 9.656-4.558 17.72 17.72 0 0 0 12.168 1.135 17.662 17.662 0 0 0 10.054-6.93c.484 0 .964-.026 1.442-.079a17.622 17.622 0 0 0 12.6-6.988 17.51 17.51 0 0 0 3.418-13.77 17.605 17.605 0 0 0 7.91-5.956 17.512 17.512 0 0 0 3.29-10.057v-.114c8.645-4.047 15.15-11.555 17.768-20.51l.036-.103a27.82 27.82 0 0 0 1.315-9.92 27.934 27.934 0 0 0-2.764-11.226c2.376-3.99 3.618-8.56 3.585-13.211a27.803 27.803 0 0 0-4.266-14.591 27.98 27.98 0 0 0-11.332-10.109 35.222 35.222 0 0 0-3.27-10.47 35.123 35.123 0 0 0-7.196-9.185 35.273 35.273 0 0 0-9.875-6.397 35.403 35.403 0 0 0-11.47-2.986 32.33 32.33 0 0 0-6.19-8.92 32.5 32.5 0 0 0-9.024-6.491 32.64 32.64 0 0 0-10.762-3.364 32.68 32.68 0 0 0-11.23.694 20.13 20.13 0 0 0-5.898-8.142 20.214 20.214 0 0 0-9.092-4.348 20.268 20.268 0 0 0-10.072.445l-.02.006a10.554 10.554 0 0 0-6.003-5.583A10.601 10.601 0 0 0 153.32 0Zm-1.09 5.612a4.92 4.92 0 0 1 2.91.573 4.9 4.9 0 0 1 2.003 1.954c.426.81.594 1.732.483 2.64a4.908 4.908 0 0 1-2.618 3.763c-2.356 1.248-5.28.35-6.538-2.006a4.896 4.896 0 0 1 .053-4.715 4.917 4.917 0 0 1 3.707-2.209Zm13.303 7.18c.24-.01.478.003.716.038 1.03.12 2.013.489 2.863 1.073a6.62 6.62 0 0 1 2.12 2.353 6.592 6.592 0 0 1 .711 3.052 6.599 6.599 0 0 1-.883 3.01 6.624 6.624 0 0 1-2.247 2.252l-.016.014c-2.782 1.658-6.373.723-8.023-2.088a6.18 6.18 0 0 1-.705-4.452 6.175 6.175 0 0 1 2.566-3.742 6.06 6.06 0 0 1 2.898-1.51Zm-26.168.637a3.808 3.808 0 0 1 1.97.216c.637.244 1.208.632 1.668 1.134a3.786 3.786 0 0 1 .916 1.723 3.776 3.776 0 0 1-.015 1.943 3.79 3.79 0 0 1-2.93 2.747 3.816 3.816 0 0 1-2.941-.677 3.79 3.79 0 0 1-1.513-2.63 3.78 3.78 0 0 1 .86-2.917 3.805 3.805 0 0 1 1.985-1.539Zm37.4 3.258a14.582 14.582 0 0 1 9.19 3.132 14.507 14.507 0 0 1 5.135 7.921c.177.716.3 1.446.367 2.181a28.977 28.977 0 0 0-10.08-1.804 29.11 29.11 0 0 0-16.52 5.107l-.108.074a22.074 22.074 0 0 0-3.47-.294 21.985 21.985 0 0 0-12.51 3.864c-3.7-2.456-8.1-3.623-12.535-3.326-6.086.406-11.72 3.482-15.313 8.36a23.02 23.02 0 0 0-4.178 12.074c-.086 2.12.11 4.24.584 6.304a21.997 21.997 0 0 0-2.83 3.312c-3.93-3.6-6.373-8.544-6.854-13.869-.481-5.324 1.03-10.63 4.241-14.88a21.85 21.85 0 0 1 13.118-8.188 21.909 21.909 0 0 1 15.318 2.569c.67.396 1.31.837 1.92 1.32.606-.89 1.284-1.728 2.028-2.507a21.93 21.93 0 0 1 14.397-7.09c.336-.026.672-.04 1.008-.047a22.003 22.003 0 0 1 4.24.31c1.122-2.07 2.67-3.879 4.543-5.304a14.547 14.547 0 0 1 8.31-3.22Zm-39.406 3.02a4.873 4.873 0 0 1 1.783.07c1.556.323 2.912 1.228 3.787 2.528a5.737 5.737 0 0 1 .87 4.245 5.74 5.74 0 0 1-2.185 3.658 5.785 5.785 0 0 1-4.128 1.229 5.78 5.78 0 0 1-3.815-1.879 5.737 5.737 0 0 1-1.465-3.937 5.726 5.726 0 0 1 1.68-3.85 5.765 5.765 0 0 1 3.473-2.064Zm57.79 9.59a29.41 29.41 0 0 1 8.093 1.167 29.3 29.3 0 0 1 7.275 3.408 29.189 29.189 0 0 1 5.93 5.305 29.08 29.08 0 0 1 4.223 6.84c.107.235.205.475.306.713a22.134 22.134 0 0 1 12.94 12.115c.188.452.358.913.51 1.38a22.17 22.17 0 0 1-.07 13.905 22.096 22.096 0 0 1-8.045 10.775 22.2 22.2 0 0 1-6.426 3.416l-.01.005c-.09.03-.18.052-.269.08a11.666 11.666 0 0 0-3.413-5.62 11.715 11.715 0 0 0-5.94-2.952c.093-.414.17-.831.232-1.252a17.544 17.544 0 0 0-3.04-12.457 17.632 17.632 0 0 0-10.611-6.94 17.695 17.695 0 0 0-12.564 2.21 17.624 17.624 0 0 0-5.605 5.265c-1.15-.28-2.325-.436-3.506-.464a17.69 17.69 0 0 0-7.21 1.281 17.634 17.634 0 0 0-5.949 4.239c-.315-.63-.68-1.232-1.091-1.8a11.715 11.715 0 0 0-6.04-4.262 11.754 11.754 0 0 0-7.351.25 17.557 17.557 0 0 0-.66-5.094 17.503 17.503 0 0 0-2.53-5.107 21.976 21.976 0 0 1 5.168-8.39 22.074 22.074 0 0 1 8.35-5.299 22.135 22.135 0 0 1 9.759-1.262c3.317.3 6.518 1.346 9.363 3.063a23.048 23.048 0 0 1 14.655-11.088 23.124 23.124 0 0 1 6.526-.768Zm-56.688 7.94a3.66 3.66 0 0 1 1.49.166 3.64 3.64 0 0 1 1.29.763 3.619 3.619 0 0 1 .878 1.222 3.6 3.6 0 0 1 .29 1.465 3.606 3.606 0 0 1-.382 1.446 3.626 3.626 0 0 1-.96 1.164 3.653 3.653 0 0 1-1.34.68 3.669 3.669 0 0 1-1.49.073 3.655 3.655 0 0 1-2.56-1.577 3.612 3.612 0 0 1-.586-2.885 3.62 3.62 0 0 1 1.559-2.284 3.66 3.66 0 0 1 1.811-.733Zm-12.164 9.69a3.6 3.6 0 0 1 1.998.425 3.564 3.564 0 0 1 1.422 1.5 3.535 3.535 0 0 1 .35 2.024 3.548 3.548 0 0 1-.858 1.871 3.583 3.583 0 0 1-1.752 1.107 3.603 3.603 0 0 1-2.064-.046 3.582 3.582 0 0 1-1.67-1.217 3.548 3.548 0 0 1-.716-1.936 3.536 3.536 0 0 1 .507-2.038 3.568 3.568 0 0 1 1.554-1.38 3.596 3.596 0 0 1 1.229-.31Zm-5.688 14.637a3.558 3.558 0 0 1 2.018.417 3.517 3.517 0 0 1 1.406 1.504 3.488 3.488 0 0 1 .333 2.017 3.502 3.502 0 0 1-.87 1.859 3.537 3.537 0 0 1-1.762 1.09 3.56 3.56 0 0 1-2.055-.06 3.537 3.537 0 0 1-1.658-1.23 3.5 3.5 0 0 1-.697-1.935 3.494 3.494 0 0 1 .521-2.028 3.525 3.525 0 0 1 1.56-1.362 3.554 3.554 0 0 1 1.204-.272Zm16.113 3.29c.33 0 .66.028.987.083a5.946 5.946 0 0 1 4.091 2.821 5.887 5.887 0 0 1 .72 4.814 5.912 5.912 0 0 1-3.154 3.86 5.963 5.963 0 0 1-4.922.286 5.928 5.928 0 0 1-3.39-3.373 5.889 5.889 0 0 1 .25-4.79 5.921 5.921 0 0 1 3.762-3.19 5.96 5.96 0 0 1 1.656-.511Zm30.91.457a11.948 11.948 0 0 1 7.227 2.376 11.864 11.864 0 0 1 4.32 6.2 11.815 11.815 0 0 1-.437 7.489 11.882 11.882 0 0 1-5.037 5.762 11.962 11.962 0 0 1-7.463 1.604 11.937 11.937 0 0 1-6.903-3.194 11.852 11.852 0 0 1-3.492-6.714 11.827 11.827 0 0 1 1.268-7.476 11.902 11.902 0 0 1 5.54-5.129 11.968 11.968 0 0 1 4.976-1.418Zm30.988.318c.259.002.517.018.774.048a11.85 11.85 0 0 1 7.014 3.436 11.76 11.76 0 0 1 3.223 7.105c.116 1.333-.006 2.677-.363 3.97a11.809 11.809 0 0 1-4.92 6.686 11.9 11.9 0 0 1-7.916 2.057 11.884 11.884 0 0 1-7.377-3.524 11.79 11.79 0 0 1-3.254-7.64 11.809 11.809 0 0 1 2.847-7.833 11.898 11.898 0 0 1 9.972-5.305Zm-73.22 3.77c.242 0 .485.018.725.052a5.62 5.62 0 0 1 3.854 2.635 5.564 5.564 0 0 1 .7 4.543 5.589 5.589 0 0 1-2.962 3.665 5.643 5.643 0 0 1-4.654.29 5.611 5.611 0 0 1-3.21-3.175 5.569 5.569 0 0 1 .214-4.52 5.601 5.601 0 0 1 3.524-3.013 5.638 5.638 0 0 1 1.809-.477Zm-30.93 7.15c.158-.004.317.003.475.021a3.519 3.519 0 0 1 2.424 1.407 3.476 3.476 0 0 1 .604 2.686 3.492 3.492 0 0 1-1.535 2.34 3.533 3.533 0 0 1-2.716.497 3.517 3.517 0 0 1-2.267-1.613 3.48 3.48 0 0 1-.465-2.717 3.497 3.497 0 0 1 1.635-2.258 3.532 3.532 0 0 1 1.845-.363Zm-4.16 15.578a3.46 3.46 0 0 1 1.954.4 3.423 3.423 0 0 1 1.383 1.456 3.393 3.393 0 0 1 .345 1.965 3.407 3.407 0 0 1-.821 1.829 3.447 3.447 0 0 1-1.707 1.097 3.469 3.469 0 0 1-2.011-.035 3.446 3.446 0 0 1-1.64-1.188 3.406 3.406 0 0 1-.694-1.879 3.395 3.395 0 0 1 .485-1.988 3.432 3.432 0 0 1 1.511-1.354 3.46 3.46 0 0 1 1.195-.303Zm11.566.523a11.723 11.723 0 0 1 6.6 2.015 11.623 11.623 0 0 1 4.415 5.357 11.555 11.555 0 0 1 .695 6.862 11.603 11.603 0 0 1-3.212 5.993 11.69 11.69 0 0 1-5.895 3.385 11.727 11.727 0 0 1-6.868-.52 11.656 11.656 0 0 1-5.504-4.234 11.572 11.572 0 0 1-2.221-6.508 11.58 11.58 0 0 1 1.8-6.646 11.665 11.665 0 0 1 5.234-4.499 11.724 11.724 0 0 1 4.956-1.205Zm26.316.03c.263 0 .527.015.79.043a11.726 11.726 0 0 1 6.965 3.299 11.62 11.62 0 0 1 3.247 6.929 11.576 11.576 0 0 1-1.754 7.547 11.668 11.668 0 0 1-6.119 4.711 11.732 11.732 0 0 1-7.678.054 11.668 11.668 0 0 1-5.972-4.902 11.576 11.576 0 0 1-1.509-7.588 11.613 11.613 0 0 1 3.474-6.793 11.714 11.714 0 0 1 8.556-3.3Zm27.574 0a11.726 11.726 0 0 1 6.996 2.252 11.62 11.62 0 0 1 4.247 5.918c.152.553.264 1.116.336 1.686a11.57 11.57 0 0 1-.955 5.954 11.644 11.644 0 0 1-4.146 4.895 11.723 11.723 0 0 1-6.116 2.27 11.738 11.738 0 0 1-6.431-1.264 11.658 11.658 0 0 1-4.764-4.564 11.57 11.57 0 0 1-1.533-6.403c.12-2.194.914-4.3 2.276-6.037a11.668 11.668 0 0 1 5.375-3.91 11.724 11.724 0 0 1 4.715-.797Zm26.996.088c.165-.002.33.005.495.02a11.692 11.692 0 0 1 6.736 2.84 11.595 11.595 0 0 1 3.744 6.269 11.55 11.55 0 0 1-.648 7.235 11.626 11.626 0 0 1-4.844 5.392 11.713 11.713 0 0 1-6.99 1.732 11.7 11.7 0 0 1-6.698-2.551 11.607 11.607 0 0 1-4.024-6.03 11.555 11.555 0 0 1 .375-7.288 11.624 11.624 0 0 1 4.616-5.571 11.712 11.712 0 0 1 7.238-2.048Zm-77.813 16.973c.323-.008.647.014.968.065a11.657 11.657 0 0 1 6.614 3.588 11.553 11.553 0 0 1 2.953 6.95 11.546 11.546 0 0 1-2.104 7.27 11.631 11.631 0 0 1-6.158 4.347 11.693 11.693 0 0 1-7.482-.39 11.62 11.62 0 0 1-5.518-4.668 11.531 11.531 0 0 1-1.756-7.015 11.556 11.556 0 0 1 2.748-6.67 11.647 11.647 0 0 1 6.176-3.918 11.696 11.696 0 0 1 3.559-.559Zm25.336 0a11.691 11.691 0 0 1 6.775 2.111 11.594 11.594 0 0 1 4.37 5.727 11.525 11.525 0 0 1-.003 7.138 11.59 11.59 0 0 1-4.265 5.613 11.682 11.682 0 0 1-6.538 2.371 11.696 11.696 0 0 1-6.79-1.705 11.607 11.607 0 0 1-4.603-5.452 11.531 11.531 0 0 1-.427-7.139 11.585 11.585 0 0 1 3.874-5.873 11.685 11.685 0 0 1 7.607-2.79Zm26.49.004a11.699 11.699 0 0 1 6.728 2.021 11.6 11.6 0 0 1 4.425 5.607 11.528 11.528 0 0 1 .1 7.13 11.596 11.596 0 0 1-4.143 5.7 11.69 11.69 0 0 1-6.479 2.49 11.706 11.706 0 0 1-6.823-1.572 11.617 11.617 0 0 1-4.684-5.333 11.535 11.535 0 0 1-.564-7.107 11.588 11.588 0 0 1 3.755-5.96 11.69 11.69 0 0 1 7.684-2.976Z"/>
</svg>