<svg xmlns="http://www.w3.org/2000/svg" viewBox="0 0 128 128">
  <path fill="#336791" d="M93.809 92.112c.785-6.533.55-7.492 5.416-6.433l1.235.108c3.742.17 8.637-.602 11.513-1.938 6.191-2.873 9.861-7.668 3.758-6.409-13.924 2.873-14.881-1.842-14.881-1.842 14.703-21.815 20.849-49.508 15.543-56.287-14.47-18.489-39.517-9.746-39.936-9.52l-.134.025c-2.751-.571-5.83-.912-9.289-.968-6.301-.104-11.082 1.657-14.535 4.494 0 0-44.157-18.208-42.109 22.936.437 8.752 12.574 66.183 27.067 48.841 5.296-6.34 10.407-11.7 10.407-11.7 2.539 1.684 5.576 2.547 8.781 2.235l.248-.022c-.076.837-.166 1.645-.212 2.611-2.814 3.148-1.987 3.698-7.625 4.855-5.706 1.169-2.356 3.253-.165 3.798 2.657.663 8.801 1.604 12.956-4.202l-.22.881c1.474 1.18 1.375 8.477 1.583 13.69.208 5.214.37 10.135 1.097 13.042.728 2.907 1.67 10.177 8.772 8.087 5.94-1.749 10.388-3.858 10.847-25.233.164-7.597.236-8.088.883-8.17l.015-.003c1.025.159 1.986.06 2.87-.303 3.921 2.715 10.091.615 10.764.29l-.018.015z"/>
  <path fill="#fff" d="M62.037 64.873c-2.6-.099-5.399-.285-7.954-.181-1.132.046-2.234.282-3.318.558-3.17.808-3.13 2.557-3.13 2.557l-.002 2.093c-.001 4.604.043 9.208.04 13.812-.003 2.217.045 4.434.14 6.649.092 2.169.39 4.327.75 6.471.143.85.326 1.691.491 2.538.158.811.279 1.617.585 2.399.241.615.57 1.2.969 1.732.369.493.809.926 1.302 1.296 1.263.947 2.794 1.412 4.364 1.601 1.603.193 3.243.131 4.844-.028 1.313-.131 2.626-.338 3.881-.709 1.038-.307 2.047-.732 2.954-1.315.909-.585 1.712-1.32 2.355-2.179.675-.902 1.145-1.938 1.45-3.011.304-1.066.42-2.175.483-3.28.064-1.129.042-2.262.015-3.393-.06-2.485-.21-4.968-.311-7.452-.126-3.099-.219-6.2-.22-9.3-.001-1.665.037-3.331.153-4.993.044-.637.113-1.272.196-1.905.024-.181.052-.362.083-.542.014-.077.031-.154.05-.23.023-.09.047-.179.082-.265.032-.076.075-.148.133-.206.097-.097.233-.142.368-.165.288-.049.586-.027.876-.018.617.018 1.233.053 1.849.089 2.115.124 4.228.278 6.344.39 2.197.117 4.394.176 6.594.19 2.268.014 4.539-.035 6.801-.208 1.074-.082 2.145-.199 3.205-.391.993-.18 1.977-.429 2.912-.802.925-.369 1.815-.859 2.592-1.492.746-.609 1.389-1.339 1.886-2.155.49-.803.842-1.69 1.072-2.602.238-.942.34-1.916.35-2.885.012-1.041-.091-2.08-.289-3.101-.388-2.006-1.164-3.933-2.225-5.658-.53-.862-1.126-1.683-1.765-2.466-.642-.786-1.331-1.531-2.049-2.244-1.458-1.448-3.065-2.737-4.768-3.866-1.677-1.11-3.446-2.083-5.262-2.955-.926-.445-1.866-.861-2.824-1.23-.967-.373-1.944-.714-2.943-.979-2.039-.54-4.134-.876-6.239-1.071-2.13-.197-4.273-.25-6.411-.198-2.059.05-4.114.196-6.148.476-2.003.276-3.988.686-5.921 1.261-1.902.566-3.755 1.294-5.517 2.19-1.73.88-3.369 1.93-4.87 3.132-1.483 1.188-2.826 2.537-3.985 4.021-1.141 1.462-2.092 3.075-2.805 4.782-.698 1.672-1.165 3.44-1.381 5.236-.212 1.756-.181 3.536.076 5.286.127.866.31 1.723.547 2.562.236.833.528 1.65.869 2.445.341.795.733 1.567 1.166 2.314.434.748.91 1.471 1.416 2.169 1.009 1.393 2.135 2.697 3.347 3.908.602.602 1.223 1.186 1.866 1.745.347.302.703.594 1.062.883.092.074.186.146.282.216z"/>
  <path fill="#336791" d="M62.037 64.873c-.096-.07-.19-.142-.282-.216-.359-.289-.715-.581-1.062-.883-.643-.559-1.264-1.143-1.866-1.745-1.212-1.211-2.338-2.515-3.347-3.908-.506-.698-.982-1.421-1.416-2.169-.433-.747-.825-1.519-1.166-2.314-.341-.795-.633-1.612-.869-2.445-.237-.839-.42-1.696-.547-2.562-.257-1.75-.288-3.53-.076-5.286.216-1.796.683-3.564 1.381-5.236.713-1.707 1.664-3.32 2.805-4.782 1.159-1.484 2.502-2.833 3.985-4.021 1.501-1.202 3.14-2.252 4.87-3.132 1.762-.896 3.615-1.624 5.517-2.19 1.933-.575 3.918-.985 5.921-1.261 2.034-.28 4.089-.426 6.148-.476 2.138-.052 4.281.001 6.411.198 2.105.195 4.2.531 6.239 1.071.999.265 1.976.606 2.943.979.958.369 1.898.785 2.824 1.23 1.816.872 3.585 1.845 5.262 2.955 1.703 1.129 3.31 2.418 4.768 3.866.718.713 1.407 1.458 2.049 2.244.639.783 1.235 1.604 1.765 2.466 1.061 1.725 1.837 3.652 2.225 5.658.198 1.021.301 2.06.289 3.101-.01.969-.112 1.943-.35 2.885-.23.912-.582 1.799-1.072 2.602-.497.816-1.14 1.546-1.886 2.155-.777.633-1.667 1.123-2.592 1.492-.935.373-1.919.622-2.912.802-1.06.192-2.131.309-3.205.391-2.262.173-4.533.222-6.801.208-2.2-.014-4.397-.073-6.594-.19-2.116-.112-4.229-.266-6.344-.39-.616-.036-1.232-.071-1.849-.089-.29-.009-.588-.031-.876.018-.135.023-.271.068-.368.165-.058.058-.101.13-.133.206-.035.086-.059.175-.082.265-.019.076-.036.153-.05.23-.031.18-.059.361-.083.542-.083.633-.152 1.268-.196 1.905-.116 1.662-.154 3.328-.153 4.993.001 3.1.094 6.201.22 9.3.101 2.484.251 4.967.311 7.452.027 1.131.049 2.264-.015 3.393-.063 1.105-.179 2.214-.483 3.28-.305 1.073-.775 2.109-1.45 3.011-.643.859-1.446 1.594-2.355 2.179-.907.583-1.916 1.008-2.954 1.315-1.255.371-2.568.578-3.881.709-1.601.159-3.241.221-4.844.028-1.57-.189-3.101-.654-4.364-1.601-.493-.37-.933-.803-1.302-1.296-.399-.532-.728-1.117-.969-1.732-.306-.782-.427-1.588-.585-2.399-.165-.847-.348-1.688-.491-2.538-.36-2.144-.658-4.302-.75-6.471-.095-2.215-.143-4.432-.14-6.649.003-4.604-.041-9.208-.04-13.812l.002-2.093s-.04-1.749 3.13-2.557c1.084-.276 2.186-.512 3.318-.558 2.555-.104 5.354.082 7.954.181z"/>
</svg>